HIERARCHY
ROOT pelvis
{
  OFFSET 0 100 0
  CHANNELS 6 Xposition Yposition Zposition Zrotation Xrotation Yrotation
  JOINT pelvis_right_femur
  {
    OFFSET -10.78128 -3.44521 -0.5502486
    CHANNELS 3 Zrotation Xrotation Yrotation
    JOINT right_femur_tibia
    {
      OFFSET -0.8047443 -44.0398 -0.1307829
      CHANNELS 3 Zrotation Xrotation Yrotation
      JOINT right_tibia_foot
      {
        OFFSET 3.006224 -47.83518 -5
        CHANNELS 3 Zrotation Xrotation Yrotation
        End Site
        {
          OFFSET 0 -5 15
        }
      }
    }
  }
  JOINT pelvis_left_femur
  {
    OFFSET 10.78128 -3.44521 -0.5502486
    CHANNELS 3 Zrotation Xrotation Yrotation
    JOINT left_femur_tibia
    {
      OFFSET 0.8047443 -44.0398 -0.1307829
      CHANNELS 3 Zrotation Xrotation Yrotation
      JOINT left_tibia_foot
      {
        OFFSET -4.370144 -48.10324 -4.275266
        CHANNELS 3 Zrotation Xrotation Yrotation
        End Site
        {
          OFFSET 0 -5 15
        }
      }
    }
  }
  JOINT pelvis_spine1
  {
    OFFSET 0 6.468898 -3.129235
    CHANNELS 3 Zrotation Xrotation Yrotation
    JOINT spine1
    {
      OFFSET 0 23.15396 4.99043
      CHANNELS 3 Zrotation Xrotation Yrotation
      JOINT spine2
      {
        OFFSET 0 20.79997 -5.064912
        CHANNELS 3 Zrotation Xrotation Yrotation
        JOINT neck
        {
          OFFSET 0 14.38658 9.616178
          CHANNELS 3 Zrotation Xrotation Yrotation
          End Site
          {
            OFFSET 0 20 0
          }
        }
      }
      JOINT right_manubrium
      {
        OFFSET -5.722621 16.35077 3.967754
        CHANNELS 3 Zrotation Xrotation Yrotation
        JOINT right_clavicle
        {
          OFFSET -13.16364 1.694482 -4.693211
          CHANNELS 3 Zrotation Xrotation Yrotation
          JOINT right_humerus
          {
            OFFSET -28.5034 -0.3100689 -2.792744
            CHANNELS 3 Zrotation Xrotation Yrotation
            JOINT right_radius
            {
              OFFSET -25.15693 0.02248979 -1.271978
              CHANNELS 3 Zrotation Xrotation Yrotation
              End Site
              {
                OFFSET -15 0 0
              }
            }
          }
        }
      }
      JOINT left_manubrium
      {
        OFFSET 5.722621 16.35077 3.967754
        CHANNELS 3 Zrotation Xrotation Yrotation
        JOINT left_clavicle
        {
          OFFSET 13.16364 1.694482 -4.693211
          CHANNELS 3 Zrotation Xrotation Yrotation
          JOINT left_humerus
          {
            OFFSET 29.39168 -1.063119 -2.237045
            CHANNELS 3 Zrotation Xrotation Yrotation
            JOINT left_radius
            {
              OFFSET 24.59957 -0.9528479 0.9047498
              CHANNELS 3 Zrotation Xrotation Yrotation
              End Site
              {
                OFFSET 15 -0 -0
              }
            }
          }
        }
      }
    }
  }
}
MOTION
Frames: 17
Frame Time: 0.0416666666667
0 103.5113 0 1.465519 -3.314317 0.3075388 1.260903 -10.48175 6.921739 -0 40.8527 -0 -6.442895 -16.4284 -3.821427 -6.783932 12.35442 -24.49359 -0 5.33259 -0 0.05483557 -19.56036 23.69839 0.1874341 -1.64305 4.523762 -0.3946169 6.800957 -7.321992 1.61971 21.74353 8.693991 5.897023 -23.05111 9.155517 4.718489 -19.05874 9.929779 89.99915 35.59248 -24.19942 -0 0 17.91219 -6.533411 7.872925 1.233534 7.508529 -21.34827 -2.265962 -102.088 42.28874 30.64019 0 0 -25.45024 -10.3611 18.70293 28.88966
0.136825 103.5625 1.28258 0.8416543 -2.165496 0.4832563 2.08699 -13.72194 7.54726 -0 41.92677 -0 -6.889754 -16.06122 -4.139204 -6.4329 12.82965 -24.69298 -0 5.790197 -0 -1.600049 -20.86425 22.87841 0.2049798 -1.525503 4.454332 -0.2614018 6.859551 -7.370713 1.540936 21.69493 8.744011 5.859852 -23.03267 9.099065 4.856769 -18.80585 9.991416 89.92807 35.98441 -24.16047 -0 0 17.35832 -6.989968 8.49809 1.5976 7.50688 -21.43993 -2.22855 -101.2995 41.77967 29.8265 0 0 -25.55054 -9.666104 18.49479 28.25944
0.2838804 103.2554 3.089691 0.1953674 -1.939378 0.5536163 3.162595 -18.94751 5.558659 -0 36.76948 -0 -7.550841 -12.31743 -3.130914 -5.776094 12.85768 -22.60822 -0 6.141049 -0 -0.2187468 -21.10065 21.80455 -0.05121124 -1.223608 3.893135 0.7136503 7.172314 -7.815117 1.367203 21.44129 8.531603 5.485534 -23.31661 8.777491 5.553304 -17.68797 10.42031 89.33597 36.06248 -24.27255 -0 0 15.15375 -7.526995 9.614726 2.849888 7.095107 -21.50514 -2.394456 -98.10555 39.80232 26.09168 0 0 -25.83625 -7.656679 17.3563 25.96995
0.4278069 102.8844 5.094275 -0.3425543 -0.5441016 0.597695 4.235531 -23.50417 5.828229 -0 34.05181 -0 -7.338229 -11.12349 -3.151381 -5.52166 13.03458 -21.93548 -0 6.276913 -0 -0.0003792053 -22.12399 21.20311 -0.1909124 -1.096141 3.662259 1.02833 7.253178 -7.91675 1.320026 21.50362 8.410575 5.315012 -23.46873 8.67958 5.659125 -17.41603 10.56467 89.2327 35.90314 -24.22093 -0 0 14.49978 -7.657662 9.682629 3.222357 6.715789 -21.33792 -2.582297 -97.39927 39.30053 25.29755 0 0 -25.54395 -7.442503 17.05094 25.60969
0.5806117 102.2747 7.471756 -0.6753969 0.3383106 0.6295225 4.969592 -27.42044 5.248961 -0 29.56918 -0 -7.08021 -9.078242 -2.796631 -5.32298 13.21187 -20.7301 -0 6.551968 -0 0.6134707 -22.87511 20.45843 -0.2914576 -1.034311 3.507456 1.326135 7.349844 -8.055575 1.283349 21.41004 8.323332 5.200184 -23.5779 8.585201 5.86332 -17.1071 10.69484 89.0165 35.80182 -24.2506 -0 0 13.91491 -7.691685 9.852358 3.557376 6.595481 -21.34069 -2.638138 -96.54131 38.68049 24.23955 0 0 -25.64779 -6.876512 16.67084 24.89811
0.7393983 101.5251 10.19668 -0.9750269 1.687541 0.7173056 5.805053 -31.17664 5.348887 -0 25.35433 -0 -6.476785 -7.674346 -2.686375 -5.258503 13.44092 -19.99167 -0 6.857365 -0 0.8318432 -23.88512 19.79668 -0.3593429 -0.9844394 3.409111 1.48654 7.396939 -8.115596 1.260838 21.40483 8.267031 5.123389 -23.64851 8.534186 5.940673 -16.95946 10.7676 88.92641 35.72725 -24.23087 -0 0 13.59523 -7.738141 9.900831 3.748959 6.457824 -21.2899 -2.704262 -96.14409 38.37104 23.76828 0 0 -25.58438 -6.670778 16.48258 24.60687
0.9009104 100.6043 13.39432 -1.143809 2.69668 0.902045 6.332716 -34.0111 4.935806 -0 20.7462 -0 -5.996099 -5.864488 -2.347133 -5.246753 13.83945 -19.0762 -0 7.589077 -0 0.9269241 -24.57737 18.92388 -0.4127107 -0.9313932 3.326871 1.639562 7.453292 -8.177064 1.231315 21.37511 8.228027 5.057893 -23.69612 8.479534 6.034765 -16.79309 10.83886 88.82425 35.71769 -24.20889 -0 0 13.24715 -7.852398 10.0394 3.973603 6.364056 -21.27866 -2.745781 -95.6784 37.98519 23.22247 0 0 -25.5846 -6.35161 16.26528 24.21514
1.060276 99.63698 17.14437 -1.350135 3.724946 1.265736 6.858404 -36.06065 4.671695 -0 16.90778 -0 -5.664892 -4.254855 -2.029803 -5.225386 14.42104 -18.35896 -0 8.89976 -0 0.4363006 -24.95302 17.79767 -0.4615178 -0.8557657 3.248248 1.764738 7.504851 -8.211331 1.193425 21.3902 8.1998 4.991731 -23.72285 8.424817 6.091291 -16.65135 10.90397 88.75936 35.75739 -24.13553 -0 0 12.90305 -8.081846 10.21444 4.226283 6.222884 -21.23751 -2.807901 -95.27984 37.61752 22.80078 0 0 -25.47496 -6.108959 16.0769 23.92234
1.213366 98.74063 21.56154 -1.626947 4.336126 1.819198 7.281347 -36.70458 4.181912 -0 14.31796 -0 -5.862607 -2.671416 -1.656781 -5.089228 15.22161 -17.47896 -0 11.41981 -0 -0.6434928 -24.36055 16.19813 -0.5183468 -0.7499486 3.158816 1.900624 7.56942 -8.237428 1.141099 21.42923 8.173278 4.911662 -23.73548 8.354828 6.143085 -16.48894 10.98177 88.69082 35.84124 -24.00652 -0 0 12.48236 -8.454083 10.46841 4.566573 6.028997 -21.17601 -2.891501 -94.81435 37.15329 22.33951 0 0 -25.28211 -5.836926 15.85329 23.60023
1.362998 98.12553 26.67471 -2.116297 4.610229 2.504753 7.888226 -35.79307 3.960383 -0 13.88093 -0 -6.634417 -1.776269 -1.508703 -4.718639 15.95358 -16.51152 -0 15.69578 -0 -2.595244 -22.38577 14.07503 -0.5954877 -0.6078405 3.053257 2.045392 7.644001 -8.245124 1.07474 21.51807 8.140746 4.808963 -23.73652 8.267857 6.172974 -16.32265 11.07528 88.61685 35.94541 -23.78535 -0 0 12.00372 -8.992087 10.77156 5.005047 5.739669 -21.0591 -3.014547 -94.32584 36.61498 21.90492 0 0 -24.92235 -5.613269 15.60944 23.31795
1.520242 97.94671 32.3715 -2.762552 4.347633 3.101212 8.64388 -33.07317 4.000031 -0 15.41483 -0 -7.839558 -1.907716 -1.728654 -4.094795 15.93879 -15.26004 -0 22.45887 -0 -5.127623 -18.64373 11.65896 -0.7070448 -0.4301223 2.931044 2.207548 7.731087 -8.23362 0.9955133 21.65777 8.09434 4.677144 -23.72888 8.159102 6.184609 -16.15481 11.19163 88.50336 36.04313 -23.4377 -0 0 11.47897 -9.708235 11.1085 5.563172 5.33983 -20.87022 -3.178409 -93.80596 35.98182 21.48874 0 0 -24.36241 -5.450429 15.33319 23.0687
1.698116 98.2447 38.37294 -3.298401 3.482484 3.332972 9.233166 -28.76072 4.124935 -0 17.49567 -0 -8.916636 -3.104151 -2.234138 -3.393539 14.2063 -13.77475 -0 31.75801 -0 -7.493875 -13.67304 9.62692 -0.8666054 -0.224292 2.80036 2.379652 7.82092 -8.192362 0.9090024 21.85616 8.028818 4.516062 -23.71518 8.030803 6.169882 -16.01284 11.32944 88.31423 36.10166 -22.91607 -0 0 10.97456 -10.59471 11.43506 6.235148 4.820224 -20.58324 -3.377206 -93.31024 35.29373 21.15846 0 0 -23.55437 -5.416222 15.04162 22.90559
1.899529 98.91913 44.40778 -3.278364 1.829175 3.065771 9.130525 -23.26002 3.758577 -0 18.0415 -0 -9.494431 -4.472686 -2.561968 -2.932856 10.36656 -12.0484 -0 42.61182 -0 -8.531511 -8.903444 8.723956 -1.083335 -0.005875079 2.67645 2.553314 7.899562 -8.114539 0.8223639 22.10353 7.943347 4.332754 -23.6977 7.887535 6.130923 -15.92137 11.48292 88.00101 36.09812 -22.18472 -0 0 10.56691 -11.62063 11.71458 7.002892 4.204129 -20.19042 -3.587082 -92.88025 34.59251 20.95317 0 0 -22.50439 -5.541584 14.74529 22.84727
2.107632 99.87318 50.33002 -2.601444 -0.3451986 2.461496 8.316521 -17.12897 2.891109 -0 16.62478 -0 -9.757587 -5.452739 -2.540451 -2.797803 5.059483 -10.30131 -0 52.74812 -0 -8.039248 -5.661809 9.046828 -1.364841 0.2103336 2.575919 2.722048 7.951792 -7.99414 0.7405892 22.38498 7.839962 4.135465 -23.67567 7.732425 6.073805 -15.8988 11.6451 87.51177 36.0267 -21.2088 -0 0 10.31986 -12.76992 11.93251 7.856992 3.52471 -19.69284 -3.778135 -92.53492 33.90403 20.88465 0 0 -21.23971 -5.828099 14.4439 22.88574
2.299511 101.0066 56.05544 -1.584889 -2.318309 1.797913 7.175455 -10.9678 2.024887 -0 14.32515 -0 -9.89321 -6.394356 -2.354564 -2.769793 -0.9205015 -8.860497 -0 59.74277 -0 -6.990643 -4.124884 10.04752 -1.730794 0.4158417 2.518353 2.888032 7.967124 -7.820954 0.6638234 22.6859 7.71734 3.925433 -23.63962 7.558447 6.009068 -15.95669 11.81627 86.75839 35.88764 -19.90625 -0 0 10.28114 -14.09673 12.10512 8.840516 2.80228 -19.08357 -3.919831 -92.24825 33.19122 20.92281 0 0 -19.76197 -6.244851 14.10268 22.96657
2.470696 102.118 61.5544 -0.5271302 -3.716794 1.237828 6.032889 -5.198645 1.407964 -0 11.96388 -0 -9.851976 -7.392231 -2.086752 -2.585738 -7.069873 -7.648487 -0 62.29571 -0 -6.017418 -3.799924 11.31885 -2.203903 0.5957311 2.546653 3.03546 7.929186 -7.568575 0.5938854 22.98793 7.578977 3.709766 -23.56097 7.359581 5.939275 -16.12952 11.99126 85.61506 35.69335 -18.13903 -0 0 10.5523 -15.72231 12.2737 10.01867 2.073034 -18.35567 -3.962938 -92.01063 32.40873 21.06816 0 0 -18.06161 -6.759653 13.68716 23.03098
2.635623 102.9436 66.85263 0.3368364 -4.589796 0.8152677 5.177257 -0.03313921 1.085354 -0 9.944546 -0 -9.593408 -8.329466 -1.783873 -1.975196 -12.97752 -6.358337 -0 60.05537 -0 -5.191075 -4.115961 12.79541 -2.765828 0.7172962 2.738278 3.106157 7.824724 -7.204107 0.5425804 23.24142 7.448281 3.521529 -23.38634 7.150118 5.855578 -16.47079 12.14539 83.99705 35.49226 -15.82108 -0 0 11.28328 -17.77079 12.52686 11.40587 1.447418 -17.56201 -3.832933 -91.84463 31.53634 21.35386 0 0 -16.23794 -7.287429 13.1998 23.00539
